                                                                        S      1
,,18HCuarta Pieza SW v1,36H076d21e3-8d09-41c9-b9c2-c9f1c9350663,7HunknowG      1
n,7Hunknown,32,38,7,99,15,,1.,2,2HMM,1,0.08,15H20240728.212027,0.01,    G      2
10000.,7Hunknown,7Hunknown,11,0,;                                       G      3
     186       1                                                00000000D      1
     186            -157       1       0                               0D      2
     514       2                                                00010000D      3
     514                       2       1                               0D      4
     510       4                                                00010000D      5
     510            -157       1       1                               0D      6
     510       5                                                00010000D      7
     510            -157       1       1                               0D      8
     510       6                                                00010000D      9
     510            -157       1       1                               0D     10
     510       7                                                00010000D     11
     510            -157       1       1                               0D     12
     510       8                                                00010000D     13
     510            -157       1       1                               0D     14
     510       9                                                00010000D     15
     510            -157       1       1                               0D     16
     510      10                                                00010000D     17
     510            -157       1       1                               0D     18
     510      11                                                00010000D     19
     510            -157       1       1                               0D     20
     510      12                                                00010000D     21
     510            -157       1       1                               0D     22
     510      13                                                00010000D     23
     510            -157       1       1                               0D     24
     510      14                                                00010000D     25
     510            -157       1       1                               0D     26
     510      15                                                00010000D     27
     510            -157       1       1                               0D     28
     510      16                                                00010000D     29
     510            -157       1       1                               0D     30
     510      17                                                00010000D     31
     510            -157       1       1                               0D     32
     508      18                                                00010000D     33
     508                       1       1                               0D     34
     508      19                                                00010000D     35
     508                       1       1                               0D     36
     508      20                                                00010000D     37
     508                       1       1                               0D     38
     508      21                                                00010000D     39
     508                       1       1                               0D     40
     508      22                                                00010000D     41
     508                       1       1                               0D     42
     508      23                                                00010000D     43
     508                       1       1                               0D     44
     508      24                                                00010000D     45
     508                       2       1                               0D     46
     508      26                                                00010000D     47
     508                       1       1                               0D     48
     508      27                                                00010000D     49
     508                       2       1                               0D     50
     508      29                                                00010000D     51
     508                       1       1                               0D     52
     508      30                                                00010000D     53
     508                       1       1                               0D     54
     508      31                                                00010000D     55
     508                       1       1                               0D     56
     508      32                                                00010000D     57
     508                       1       1                               0D     58
     508      33                                                00010000D     59
     508                       2       1                               0D     60
     508      35                                                00010000D     61
     508                       1       1                               0D     62
     508      36                                                00010000D     63
     508                       1       1                               0D     64
     126      37                                                00010000D     65
     126       0               4       0                               0D     66
     126      41                                                00010000D     67
     126       0               3       0                               0D     68
     126      44                                                00010000D     69
     126       0               3       0                               0D     70
     126      47                                                00010000D     71
     126       0               3       0                               0D     72
     126      50                                                00010000D     73
     126       0               4       0                               0D     74
     126      54                                                00010000D     75
     126       0               3       0                               0D     76
     126      57                                                00010000D     77
     126       0               3       0                               0D     78
     126      60                                                00010000D     79
     126       0               4       0                               0D     80
     126      64                                                00010000D     81
     126       0               3       0                               0D     82
     126      67                                                00010000D     83
     126       0               3       0                               0D     84
     126      70                                                00010000D     85
     126       0               4       0                               0D     86
     126      74                                                00010000D     87
     126       0               3       0                               0D     88
     126      77                                                00010000D     89
     126       0               3       0                               0D     90
     126      80                                                00010000D     91
     126       0               4       0                               0D     92
     126      84                                                00010000D     93
     126       0               3       0                               0D     94
     126      87                                                00010000D     95
     126       0               3       0                               0D     96
     126      90                                                00010000D     97
     126       0               4       0                               0D     98
     126      94                                                00010000D     99
     126       0               3       0                               0D    100
     126      97                                                00010000D    101
     126       0               9       0                               0D    102
     126     106                                                00010000D    103
     126       0               4       0                               0D    104
     126     110                                                00010000D    105
     126       0               9       0                               0D    106
     126     119                                                00010000D    107
     126       0               7       0                               0D    108
     126     126                                                00010000D    109
     126       0               2       0                               0D    110
     126     128                                                00010000D    111
     126       0               7       0                               0D    112
     126     135                                                00010000D    113
     126       0              10       0                               0D    114
     126     145                                                00010000D    115
     126       0               3       0                               0D    116
     126     148                                                00010000D    117
     126       0              10       0                               0D    118
     126     158                                                00010000D    119
     126       0               9       0                               0D    120
     126     167                                                00010000D    121
     126       0               3       0                               0D    122
     128     170                                                00010000D    123
     128       0    -157       6       0                               0D    124
     128     176                                                00010000D    125
     128       0    -157       6       0                               0D    126
     128     182                                                00010000D    127
     128       0    -157       6       0                               0D    128
     128     188                                                00010000D    129
     128       0    -157       6       0                               0D    130
     128     194                                                00010000D    131
     128       0    -157       6       0                               0D    132
     128     200                                                00010000D    133
     128       0    -157       6       0                               0D    134
     128     206                                                00010000D    135
     128       0    -157       7       0                               0D    136
     128     213                                                00010000D    137
     128       0    -157      15       0                               0D    138
     128     228                                                00010000D    139
     128       0    -157      11       0                               0D    140
     128     239                                                00010000D    141
     128       0    -157       3       0                               0D    142
     128     242                                                00010000D    143
     128       0    -157      13       0                               0D    144
     128     255                                                00010000D    145
     128       0    -157      13       0                               0D    146
     128     268                                                00010000D    147
     128       0    -157       3       0                               0D    148
     128     271                                                00010000D    149
     128       0    -157       3       0                               0D    150
     502     274                                                00010000D    151
     502                      12       1                               0D    152
     504     286                                                00010001D    153
     504                       8       1                               0D    154
     406     294                                                00000000D    155
     406                       1      15                               0D    156
     314     295                                                00000200D    157
     314                       2       0                               0D    158
186,3,1,0,0,1,155;                                                     1P      1
514,14,5,1,7,1,9,1,11,1,13,1,15,1,17,1,19,1,21,1,23,1,25,1,27,1,       3P      2
29,1,31,1;                                                             3P      3
510,123,1,1,33;                                                        5P      4
510,125,1,1,35;                                                        7P      5
510,127,1,1,37;                                                        9P      6
510,129,1,1,39;                                                       11P      7
510,131,1,1,41;                                                       13P      8
510,133,1,1,43;                                                       15P      9
510,135,1,1,45;                                                       17P     10
510,137,1,1,47;                                                       19P     11
510,139,1,1,49;                                                       21P     12
510,141,1,1,51;                                                       23P     13
510,143,1,1,53;                                                       25P     14
510,145,1,1,55;                                                       27P     15
510,147,2,1,57,59;                                                    29P     16
510,149,2,1,61,63;                                                    31P     17
508,4,0,153,1,0,0,0,153,2,1,0,0,153,3,1,0,0,153,4,0,0;                33P     18
508,4,0,153,5,0,0,0,153,6,1,0,0,153,7,1,0,0,153,2,0,0;                35P     19
508,4,0,153,8,0,0,0,153,9,1,0,0,153,10,1,0,0,153,6,0,0;               37P     20
508,4,0,153,11,0,0,0,153,12,1,0,0,153,13,1,0,0,153,9,0,0;             39P     21
508,4,0,153,14,0,0,0,153,15,1,0,0,153,16,1,0,0,153,12,0,0;            41P     22
508,4,0,153,17,0,0,0,153,4,1,0,0,153,18,1,0,0,153,15,0,0;             43P     23
508,6,0,153,18,0,0,0,153,3,0,0,0,153,7,0,0,0,153,10,0,0,0,153,        45P     24
13,0,0,0,153,16,0,0;                                                  45P     25
508,4,0,153,19,1,0,0,153,20,1,0,0,153,21,1,0,0,153,20,0,0;            47P     26
508,5,0,153,22,1,0,0,153,23,1,0,0,153,19,0,0,0,153,23,0,0,0,153,      49P     27
24,1,0;                                                               49P     28
508,1,0,153,21,0,0;                                                   51P     29
508,4,0,153,25,1,0,0,153,26,1,0,0,153,27,1,0,0,153,26,0,0;            53P     30
508,4,0,153,28,0,0,0,153,29,1,0,0,153,27,0,0,0,153,29,0,0;            55P     31
508,1,0,153,25,0,0;                                                   57P     32
508,6,0,153,1,1,0,0,153,17,1,0,0,153,14,1,0,0,153,11,1,0,0,153,       59P     33
8,1,0,0,153,5,1,0;                                                    59P     34
508,1,0,153,28,1,0;                                                   61P     35
508,2,0,153,22,0,0,0,153,24,0,0;                                      63P     36
126,1,1,0,0,1,0,-0.0577350239078461,-0.0577350239078461,              65P     37
0.173205082047366,0.173205082047366,1.,1.,-2.98023206113385D-8,       65P     38
-2.30940105955212,14.,-2.00000002980232,-1.15470055558563,14.,        65P     39
-0.0577350239078461,0.173205082047366,0.,0.,0.;                       65P     40
126,1,1,0,0,1,0,0.,0.,0.4,0.4,1.,1.,-2.98023206113385D-8,             67P     41
-2.30940105955212,14.,-2.98023206113385D-8,-2.30940105955212,         67P     42
10.,0.,0.4,0.,0.,0.;                                                  67P     43
126,1,1,0,0,1,0,-0.230940105955212,-0.230940105955212,0.,0.,1.,       69P     44
1.,-2.98023206113385D-8,-2.30940105955212,10.,-2.00000002980232,      69P     45
-1.15470055558563,10.,-0.230940105955212,0.,0.,0.,0.;                 69P     46
126,1,1,0,0,1,0,0.,0.,0.4,0.4,1.,1.,-2.00000002980232,                71P     47
-1.15470055558563,14.,-2.00000002980232,-1.15470055558563,10.,        71P     48
0.,0.4,0.,0.,0.;                                                      71P     49
126,1,1,0,0,1,0,-0.0577350303602384,-0.0577350303602384,              73P     50
0.173205080756888,0.173205080756888,1.,1.,2.00000002980232,           73P     51
-1.15470055558563,14.,-2.98023206113385D-8,-2.30940105955212,         73P     52
14.,-0.0577350303602384,0.173205080756888,0.,0.,0.;                   73P     53
126,1,1,0,0,1,0,0.,0.,0.4,0.4,1.,1.,2.00000002980232,                 75P     54
-1.15470055558563,14.,2.00000002980232,-1.15470055558563,10.,0.,      75P     55
0.4,0.,0.,0.;                                                         75P     56
126,1,1,0,0,1,0,0.,0.,0.230940111117126,0.230940111117126,1.,1.,      77P     57
2.00000002980232,-1.15470055558563,10.,-2.98023206113385D-8,          77P     58
-2.30940105955212,10.,0.,0.230940111117126,0.,0.,0.;                  77P     59
126,1,1,0,0,1,0,-0.0577350277792816,-0.0577350277792816,              79P     60
0.173205083337845,0.173205083337845,1.,1.,2.00000002980232,           79P     61
1.15470055558563,14.,2.00000002980232,-1.15470055558563,14.,          79P     62
-0.0577350277792816,0.173205083337845,0.,0.,0.;                       79P     63
126,1,1,0,0,1,0,0.,0.,0.4,0.4,1.,1.,2.00000002980232,                 81P     64
1.15470055558563,14.,2.00000002980232,1.15470055558563,10.,0.,        81P     65
0.4,0.,0.,0.;                                                         81P     66
126,1,1,0,0,1,0,-0.230940111117126,-0.230940111117126,0.,0.,1.,       83P     67
1.,2.00000002980232,1.15470055558563,10.,2.00000002980232,            83P     68
-1.15470055558563,10.,-0.230940111117126,0.,0.,0.,0.;                 83P     69
126,1,1,0,0,1,0,-0.0577350239078462,-0.0577350239078462,              85P     70
0.173205082047366,0.173205082047366,1.,1.,2.98023214440057D-8,        85P     71
2.30940105955212,14.,2.00000002980232,1.15470055558563,14.,           85P     72
-0.0577350239078462,0.173205082047366,0.,0.,0.;                       85P     73
126,1,1,0,0,1,0,0.,0.,0.4,0.4,1.,1.,2.98023214440057D-8,              87P     74
2.30940105955212,14.,2.98023214440057D-8,2.30940105955212,10.,        87P     75
0.,0.4,0.,0.,0.;                                                      87P     76
126,1,1,0,0,1,0,0.,0.,0.230940105955212,0.230940105955212,1.,1.,      89P     77
2.98023214440057D-8,2.30940105955212,10.,2.00000002980232,            89P     78
1.15470055558563,10.,0.,0.230940105955212,0.,0.,0.;                   89P     79
126,1,1,0,0,1,0,-0.0577350303602384,-0.0577350303602384,              91P     80
0.173205080756888,0.173205080756888,1.,1.,-2.00000002980232,          91P     81
1.15470055558563,14.,2.980232116645D-8,2.30940105955212,14.,          91P     82
-0.0577350303602384,0.173205080756888,0.,0.,0.;                       91P     83
126,1,1,0,0,1,0,0.,0.,0.4,0.4,1.,1.,-2.00000002980232,                93P     84
1.15470055558563,14.,-2.00000002980232,1.15470055558563,10.,0.,       93P     85
0.4,0.,0.,0.;                                                         93P     86
126,1,1,0,0,1,0,0.,0.,0.230940111117126,0.230940111117126,1.,1.,      95P     87
-2.00000002980232,1.15470055558563,10.,2.98023214440057D-8,           95P     88
2.30940105955212,10.,0.,0.230940111117126,0.,0.,0.;                   95P     89
126,1,1,0,0,1,0,-0.0577350277792816,-0.0577350277792816,              97P     90
0.173205083337845,0.173205083337845,1.,1.,-2.00000002980232,          97P     91
-1.15470055558563,14.,-2.00000002980232,1.15470055558563,14.,         97P     92
-0.0577350277792816,0.173205083337845,0.,0.,0.;                       97P     93
126,1,1,0,0,1,0,-0.230940111117126,-0.230940111117126,0.,0.,1.,       99P     94
1.,-2.00000002980232,-1.15470055558563,10.,-2.00000002980232,         99P     95
1.15470055558563,10.,-0.230940111117126,0.,0.,0.,0.;                  99P     96
126,8,2,0,1,0,0,-3.14159265358979,-3.14159265358979,                 101P     97
-3.14159265358979,-1.5707963267949,-1.5707963267949,0.,0.,           101P     98
1.5707963267949,1.5707963267949,3.14159265358979,                    101P     99
3.14159265358979,3.14159265358979,1.,0.707106781186548,1.,           101P    100
0.707106781186548,1.,0.707106781186548,1.,0.707106781186548,1.,      101P    101
-4.,4.89858719658941D-16,0.5,-4.,4.,0.5,2.44929359829471D-16,4.,     101P    102
0.5,4.,4.,0.5,4.,0.,0.5,4.,-4.,0.5,2.44929359829471D-16,-4.,0.5,     101P    103
-4.,-4.,0.5,-4.,-4.89858719658941D-16,0.5,-3.14159265358979,         101P    104
3.14159265358979,0.,0.,0.;                                           101P    105
126,1,1,0,0,1,0,-0.0942809041582064,-0.0942809041582064,             103P    106
0.0942809041582063,0.0942809041582063,1.,1.,-4.,0.,0.5,-3.5,0.,      103P    107
6.93889390390723D-17,-0.0942809041582064,0.0942809041582063,0.,      103P    108
0.,0.;                                                               103P    109
126,8,2,0,1,0,0,-3.14159265358979,-3.14159265358979,                 105P    110
-3.14159265358979,-1.5707963267949,-1.5707963267949,0.,0.,           105P    111
1.5707963267949,1.5707963267949,3.14159265358979,                    105P    112
3.14159265358979,3.14159265358979,1.,0.707106781186548,1.,           105P    113
0.707106781186548,1.,0.707106781186548,1.,0.707106781186548,1.,      105P    114
-3.5,-4.28626379701574D-16,0.,-3.5,-3.5,0.,2.14313189850787D-16,     105P    115
-3.5,0.,3.5,-3.5,0.,3.5,0.,0.,3.5,3.5,0.,2.14313189850787D-16,       105P    116
3.5,0.,-3.5,3.5,0.,-3.5,4.28626379701574D-16,0.,                     105P    117
-3.14159265358979,3.14159265358979,0.,0.,0.;                         105P    118
126,4,2,0,0,0,0,-1.22464679914735D-16,-1.22464679914735D-16,         107P    119
-1.22464679914735D-16,1.5707963267949,1.5707963267949,               107P    120
3.14159265358979,3.14159265358979,3.14159265358979,1.,               107P    121
0.707106781186548,1.,0.707106781186548,1.,4.,                        107P    122
4.89858719658941D-16,10.,4.,-4.,10.,2.44929359829471D-16,-4.,        107P    123
10.,-4.,-4.,10.,-4.,-4.89858719658941D-16,10.,                       107P    124
-1.22464679914735D-16,3.14159265358979,0.,0.,0.;                     107P    125
126,1,1,0,0,1,0,-2.5,-2.5,-0.125,-0.125,1.,1.,-4.,0.,10.,-4.,0.,     109P    126
0.5,-2.5,-0.125,0.,0.,0.;                                            109P    127
126,4,2,0,0,0,0,3.14159265358979,3.14159265358979,                   111P    128
3.14159265358979,4.71238898038469,4.71238898038469,                  111P    129
6.28318530717959,6.28318530717959,6.28318530717959,1.,               111P    130
0.707106781186548,1.,0.707106781186547,1.,-4.,                       111P    131
-4.89858719658941D-16,10.,-4.,4.,10.,-7.34788079488412D-16,4.,       111P    132
10.,4.,4.,10.,4.,9.79717439317883D-16,10.,3.14159265358979,          111P    133
6.28318530717959,0.,0.,0.;                                           111P    134
126,8,2,0,1,0,0,-3.14159265358979,-3.14159265358979,                 113P    135
-3.14159265358979,-1.5707963267949,-1.5707963267949,0.,0.,           113P    136
1.5707963267949,1.5707963267949,3.14159265358979,                    113P    137
3.14159265358979,3.14159265358979,1.,0.707106781186548,1.,           113P    138
0.707106781186548,1.,0.707106781186548,1.,0.707106781186548,1.,      113P    139
5.5,-6.73555739531044D-16,14.,5.5,-5.5,14.,                          113P    140
-3.36777869765522D-16,-5.5,14.,-5.5,-5.5,14.,-5.5,0.,14.,-5.5,       113P    141
5.5,14.,-3.36777869765522D-16,5.5,14.,5.5,5.5,14.,5.5,               113P    142
6.73555739531044D-16,14.,-3.14159265358979,3.14159265358979,0.,      113P    143
0.,0.;                                                               113P    144
126,1,1,0,0,1,0,-0.0614875461901347,-0.0614875461901347,             115P    145
0.0614875461901345,0.0614875461901345,1.,1.,5.5,0.,14.,6.,0.,        115P    146
13.5,-0.0614875461901347,0.0614875461901345,0.,0.,0.;                115P    147
126,8,2,0,1,0,0,-3.14159265358979,-3.14159265358979,                 117P    148
-3.14159265358979,-1.5707963267949,-1.5707963267949,0.,0.,           117P    149
1.5707963267949,1.5707963267949,3.14159265358979,                    117P    150
3.14159265358979,3.14159265358979,1.,0.707106781186548,1.,           117P    151
0.707106781186548,1.,0.707106781186548,1.,0.707106781186548,1.,      117P    152
6.,7.34788079488412D-16,13.5,6.,6.,13.5,-3.67394039744206D-16,       117P    153
6.,13.5,-6.,6.,13.5,-6.,0.,13.5,-6.,-6.,13.5,                        117P    154
-3.67394039744206D-16,-6.,13.5,6.,-6.,13.5,6.,                       117P    155
-7.34788079488412D-16,13.5,-3.14159265358979,3.14159265358979,       117P    156
0.,0.,0.;                                                            117P    157
126,8,2,0,1,0,0,-3.14159265358979,-3.14159265358979,                 119P    158
-3.14159265358979,-1.5707963267949,-1.5707963267949,0.,0.,           119P    159
1.5707963267949,1.5707963267949,3.14159265358979,                    119P    160
3.14159265358979,3.14159265358979,1.,0.707106781186548,1.,           119P    161
0.707106781186548,1.,0.707106781186548,1.,0.707106781186548,1.,      119P    162
6.,-7.34788079488412D-16,10.,6.,-6.,10.,-3.67394039744206D-16,       119P    163
-6.,10.,-6.,-6.,10.,-6.,0.,10.,-6.,6.,10.,-3.67394039744206D-16,     119P    164
6.,10.,6.,6.,10.,6.,7.34788079488412D-16,10.,-3.14159265358979,      119P    165
3.14159265358979,0.,0.,0.;                                           119P    166
126,1,1,0,0,1,0,-0.666666666666667,-0.666666666666667,               121P    167
-0.0833333333333334,-0.0833333333333334,1.,1.,6.,0.,10.,6.,0.,       121P    168
13.5,-0.666666666666667,-0.0833333333333334,0.,0.,0.;                121P    169
128,1,1,1,1,0,0,1,0,0,-0.001,-0.001,0.231940105955212,               123P    170
0.231940105955212,-0.001,-0.001,0.401,0.401,1.,1.,1.,1.,             123P    171
-2.00866028390469,-1.14970055569739,14.01,0.0086602243000477,        123P    172
-2.31440105944036,14.01,-2.00866028390469,-1.14970055569739,         123P    173
9.99,0.0086602243000477,-2.31440105944036,9.99,-0.001,               123P    174
0.231940105955212,-0.001,0.401;                                      123P    175
128,1,1,1,1,0,0,1,0,0,-0.001,-0.001,0.231940111117126,               125P    176
0.231940111117126,-0.001,-0.001,0.401,0.401,1.,1.,1.,1.,             125P    177
-0.00866028396921292,-2.31440105932861,14.01,2.00866028396921,       125P    178
-1.14970055580915,14.01,-0.00866028396921292,-2.31440105932861,      125P    179
9.99,2.00866028396921,-1.14970055580915,9.99,-0.001,                 125P    180
0.231940111117126,-0.001,0.401;                                      125P    181
128,1,1,1,1,0,0,1,0,0,-0.00100000000000001,-0.00100000000000001,     127P    182
0.231940111117126,0.231940111117126,-0.001,-0.001,0.401,0.401,       127P    183
1.,1.,1.,1.,2.00000002980232,-1.16470055558563,14.01,                127P    184
2.00000002980232,1.16470055558563,14.01,2.00000002980232,            127P    185
-1.16470055558563,9.99,2.00000002980232,1.16470055558563,9.99,       127P    186
-0.00100000000000001,0.231940111117126,-0.001,0.401;                 127P    187
128,1,1,1,1,0,0,1,0,0,-0.00100000000000002,-0.00100000000000002,     129P    188
0.231940105955212,0.231940105955212,-0.001,-0.001,0.401,0.401,       129P    189
1.,1.,1.,1.,2.00866028390469,1.14970055569739,14.01,                 129P    190
-0.00866022430004704,2.31440105944036,14.01,2.00866028390469,        129P    191
1.14970055569739,9.99,-0.00866022430004704,2.31440105944036,         129P    192
9.99,-0.00100000000000002,0.231940105955212,-0.001,0.401;            129P    193
128,1,1,1,1,0,0,1,0,0,-0.001,-0.001,0.231940111117126,               131P    194
0.231940111117126,-0.001,-0.001,0.401,0.401,1.,1.,1.,1.,             131P    195
0.00866028396921403,2.31440105932861,14.01,-2.00866028396921,        131P    196
1.14970055580915,14.01,0.00866028396921403,2.31440105932861,         131P    197
9.99,-2.00866028396921,1.14970055580915,9.99,-0.001,                 131P    198
0.231940111117126,-0.001,0.401;                                      131P    199
128,1,1,1,1,0,0,1,0,0,-0.001,-0.001,0.231940111117126,               133P    200
0.231940111117126,-0.001,-0.001,0.401,0.401,1.,1.,1.,1.,             133P    201
-2.00000002980232,1.16470055558563,14.01,-2.00000002980232,          133P    202
-1.16470055558563,14.01,-2.00000002980232,1.16470055558563,9.99,     133P    203
-2.00000002980232,-1.16470055558563,9.99,-0.001,                     133P    204
0.231940111117126,-0.001,0.401;                                      133P    205
128,1,1,1,1,0,0,1,0,0,-0.201000002980232,-0.201000002980232,         135P    206
0.201000002980232,0.201000002980232,-0.231940105955212,              135P    207
-0.231940105955212,0.231940105955212,0.231940105955212,1.,1.,1.,     135P    208
1.,-2.01000002980232,-2.31940105955212,10.,2.01000002980232,         135P    209
-2.31940105955212,10.,-2.01000002980232,2.31940105955212,10.,        135P    210
2.01000002980232,2.31940105955212,10.,-0.201000002980232,            135P    211
0.201000002980232,-0.231940105955212,0.231940105955212;              135P    212
128,1,8,1,2,0,1,0,0,1,-0.0942809041582063,-0.0942809041582063,       137P    213
0.0942809041582064,0.0942809041582064,-3.14159265358979,             137P    214
-3.14159265358979,-3.14159265358979,-1.5707963267949,                137P    215
-1.5707963267949,0.,0.,1.5707963267949,1.5707963267949,              137P    216
3.14159265358979,3.14159265358979,3.14159265358979,1.,1.,            137P    217
0.707106781186548,0.707106781186548,1.,1.,0.707106781186548,         137P    218
0.707106781186548,1.,1.,0.707106781186548,0.707106781186548,1.,      137P    219
1.,0.707106781186548,0.707106781186548,1.,1.,-4.,0.,0.5,-3.5,0.,     137P    220
6.93889390390723D-17,-4.,-4.,0.5,-3.5,-3.5,6.93889390390723D-17,     137P    221
0.,-4.,0.5,0.,-3.5,6.93889390390723D-17,4.,-4.,0.5,3.5,-3.5,         137P    222
6.93889390390723D-17,4.,0.,0.5,3.5,0.,6.93889390390723D-17,4.,       137P    223
4.,0.5,3.5,3.5,6.93889390390723D-17,0.,4.,0.5,0.,3.5,                137P    224
6.93889390390723D-17,-4.,4.,0.5,-3.5,3.5,6.93889390390723D-17,       137P    225
-4.,0.,0.5,-3.5,0.,6.93889390390723D-17,-0.0942809041582063,         137P    226
0.0942809041582064,-3.14159265358979,3.14159265358979;               137P    227
128,1,8,1,2,0,1,0,0,1,0.125,0.125,2.5,2.5,-3.14159265358979,         139P    228
-3.14159265358979,-3.14159265358979,-1.5707963267949,                139P    229
-1.5707963267949,0.,0.,1.5707963267949,1.5707963267949,              139P    230
3.14159265358979,3.14159265358979,3.14159265358979,1.,1.,            139P    231
0.707106781186548,0.707106781186548,1.,1.,0.707106781186548,         139P    232
0.707106781186548,1.,1.,0.707106781186548,0.707106781186548,1.,      139P    233
1.,0.707106781186548,0.707106781186548,1.,1.,-4.,0.,10.,-4.,0.,      139P    234
0.5,-4.,-4.,10.,-4.,-4.,0.5,0.,-4.,10.,0.,-4.,0.5,4.,-4.,10.,4.,     139P    235
-4.,0.5,4.,0.,10.,4.,0.,0.5,4.,4.,10.,4.,4.,0.5,0.,4.,10.,0.,4.,     139P    236
0.5,-4.,4.,10.,-4.,4.,0.5,-4.,0.,10.,-4.,0.,0.5,0.125,2.5,           139P    237
-3.14159265358979,3.14159265358979;                                  139P    238
128,1,1,1,1,0,0,1,0,0,-0.351,-0.351,0.351,0.351,-0.351,-0.351,       141P    239
0.351,0.351,1.,1.,1.,1.,3.51,-3.51,0.,-3.51,-3.51,0.,3.51,3.51,      141P    240
0.,-3.51,3.51,0.,-0.351,0.351,-0.351,0.351;                          141P    241
128,1,8,1,2,0,1,0,0,1,-0.0614875461901345,-0.0614875461901345,       143P    242
0.0614875461901347,0.0614875461901347,-3.14159265358979,             143P    243
-3.14159265358979,-3.14159265358979,-1.5707963267949,                143P    244
-1.5707963267949,0.,0.,1.5707963267949,1.5707963267949,              143P    245
3.14159265358979,3.14159265358979,3.14159265358979,1.,1.,            143P    246
0.707106781186548,0.707106781186548,1.,1.,0.707106781186548,         143P    247
0.707106781186548,1.,1.,0.707106781186548,0.707106781186548,1.,      143P    248
1.,0.707106781186548,0.707106781186548,1.,1.,5.5,0.,14.,6.,0.,       143P    249
13.5,5.5,5.5,14.,6.,6.,13.5,0.,5.5,14.,0.,6.,13.5,-5.5,5.5,14.,      143P    250
-6.,6.,13.5,-5.5,0.,14.,-6.,0.,13.5,-5.5,-5.5,14.,-6.,-6.,13.5,      143P    251
0.,-5.5,14.,0.,-6.,13.5,5.5,-5.5,14.,6.,-6.,13.5,5.5,0.,14.,6.,      143P    252
0.,13.5,-0.0614875461901345,0.0614875461901347,                      143P    253
-3.14159265358979,3.14159265358979;                                  143P    254
128,1,8,1,2,0,1,0,0,1,0.0833333333333334,0.0833333333333334,         145P    255
0.666666666666667,0.666666666666667,-3.14159265358979,               145P    256
-3.14159265358979,-3.14159265358979,-1.5707963267949,                145P    257
-1.5707963267949,0.,0.,1.5707963267949,1.5707963267949,              145P    258
3.14159265358979,3.14159265358979,3.14159265358979,1.,1.,            145P    259
0.707106781186548,0.707106781186548,1.,1.,0.707106781186548,         145P    260
0.707106781186548,1.,1.,0.707106781186548,0.707106781186548,1.,      145P    261
1.,0.707106781186548,0.707106781186548,1.,1.,6.,0.,10.,6.,0.,        145P    262
13.5,6.,-6.,10.,6.,-6.,13.5,0.,-6.,10.,0.,-6.,13.5,-6.,-6.,10.,      145P    263
-6.,-6.,13.5,-6.,0.,10.,-6.,0.,13.5,-6.,6.,10.,-6.,6.,13.5,0.,       145P    264
6.,10.,0.,6.,13.5,6.,6.,10.,6.,6.,13.5,6.,0.,10.,6.,0.,13.5,         145P    265
0.0833333333333334,0.666666666666667,-3.14159265358979,              145P    266
3.14159265358979;                                                    145P    267
128,1,1,1,1,0,0,1,0,0,-0.551,-0.551,0.551,0.551,-0.551,-0.551,       147P    268
0.551,0.551,1.,1.,1.,1.,-5.51,-5.51,14.,5.51,-5.51,14.,-5.51,        147P    269
5.51,14.,5.51,5.51,14.,-0.551,0.551,-0.551,0.551;                    147P    270
128,1,1,1,1,0,0,1,0,0,-0.601,-0.601,0.601,0.601,-0.601,-0.601,       149P    271
0.601,0.601,1.,1.,1.,1.,-6.01,6.01,10.,6.01,6.01,10.,-6.01,          149P    272
-6.01,10.,6.01,-6.01,10.,-0.601,0.601,-0.601,0.601;                  149P    273
502,19,-2.98023206113385D-8,-2.30940105955212,14.,                   151P    274
-2.00000002980232,-1.15470055558563,14.,-2.98023206113385D-8,        151P    275
-2.30940105955212,10.,-2.00000002980232,-1.15470055558563,10.,       151P    276
2.00000002980232,-1.15470055558563,14.,2.00000002980232,             151P    277
-1.15470055558563,10.,2.00000002980232,1.15470055558563,14.,         151P    278
2.00000002980232,1.15470055558563,10.,2.98023214440057D-8,           151P    279
2.30940105955212,14.,2.98023214440057D-8,2.30940105955212,10.,       151P    280
-2.00000002980232,1.15470055558563,14.,-2.00000002980232,            151P    281
1.15470055558563,10.,-4.,4.89858719658941D-16,0.5,-3.5,              151P    282
-4.28626379701574D-16,0.,4.,4.89858719658941D-16,10.,-4.,0.,10.,     151P    283
5.5,-6.73555739531044D-16,14.,6.,7.34788079488412D-16,13.5,6.,       151P    284
7.34788079488412D-16,10.;                                            151P    285
504,29,65,151,1,151,2,67,151,1,151,3,69,151,3,151,4,71,151,2,        153P    286
151,4,73,151,5,151,1,75,151,5,151,6,77,151,6,151,3,79,151,7,151,     153P    287
5,81,151,7,151,8,83,151,8,151,6,85,151,9,151,7,87,151,9,151,10,      153P    288
89,151,10,151,8,91,151,11,151,9,93,151,11,151,12,95,151,12,151,      153P    289
10,97,151,2,151,11,99,151,4,151,12,101,151,13,151,13,103,151,13,     153P    290
151,14,105,151,14,151,14,107,151,15,151,16,109,151,16,151,13,        153P    291
111,151,16,151,15,113,151,17,151,17,115,151,17,151,18,117,151,       153P    292
18,151,18,119,151,19,151,19,121,151,19,151,18;                       153P    293
406,1,5HBody1;                                                       155P    294
314,62.7450980392157,62.7450980392157,62.7450980392157,13HSteel      157P    295
- Satin;                                                             157P    296
S      1G      3D    158P    296                                        T      1
